<?xml version="1.0" encoding="utf-8"?>
<!-- Generator: Adobe Illustrator 19.0.1, SVG Export Plug-In . SVG Version: 6.00 Build 0)  -->
<!DOCTYPE svg PUBLIC "-//W3C//DTD SVG 1.1//EN" "http://www.w3.org/Graphics/SVG/1.1/DTD/svg11.dtd">
<svg version="1.1" id="Layer_1" xmlns="http://www.w3.org/2000/svg" xmlns:xlink="http://www.w3.org/1999/xlink" x="0px" y="0px"
	 viewBox="134.5 -354.7 455 911.7" style="enable-background:new 134.5 -354.7 455 911.7;" xml:space="preserve">
<style type="text/css">
	.st0{fill:#FFFFFF;}
	.st1{fill:url(#SVGID_1_);}
	.st2{fill:url(#SVGID_2_);}
	.st3{fill:url(#SVGID_3_);}
	.st4{fill:url(#SVGID_4_);}
	.st5{fill:url(#SVGID_5_);}
</style>
<g>
	<path class="st0" d="M461.9,415.6c-0.7,0.2-1.4,0.7-2,0.9C460.6,416.3,461.4,415.9,461.9,415.6z"/>
</g>
<g>
	<g>
		<path class="st0" d="M588.5-314.1c-1-0.5-1.9-0.7-2.6-1c-15.7-5.7-31.2-11.2-47-16.9c-20.2-7.1-40.2-14.5-60.5-21.7
			c-1.9-0.7-3.8-1.2-6-1c-2.1,0.2-4.3,0.5-6.7,0.5c-7.9,0.7-16,1.2-23.8,1.9c-4.8,0.5-9.5,0.7-14.3,1.2c-5,0.5-10,1-15.3,1.4
			c-5.5,0.2-5.5,0.2-9.1,4.3c-16,17.4-31.9,35-47.7,52.4c-3.6,4.1-3.6,4.1-9.1,4.3c-0.2,0-0.5,0-0.7,0c-6,0.2-11.9,0.7-17.6,1.2
			c-4.3,0.2-8.8,0.7-13.1,1c-5.7,0.5-11.4,1-17.2,1.2c-5.7,0.5-11.4,0.7-17.4,1c-4.3,0.2-8.6,0.5-12.9,1c-6,0.5-11.7,1-17.6,1.4
			c-5.7,0.5-11.4,0.7-17.4,1c-4.3,0.2-8.8,0.5-13.1,1c-5.7,0.5-11.4,1-17.2,1.4c-4.3,0.2-8.8,0.5-12.9,1c-1.9,2.1-3.8,3.8-5.7,5.7
			c-4.5,4.8-9.3,9.5-13.8,14.1c-8.6,8.8-17.2,17.9-26.5,26.2c-2.1,1.9-4.3,4.1-6.4,6c-1.7,1.4-2.6,3.1-2.4,5.5c0.2,2.1,0,4.3,0,6.7
			c0.2,12.6,0.5,25.3,0.7,37.9c0.2,17.4,0.5,34.6,1,52c0,4.3,0.2,8.8,0.2,13.1c0.2,10.2,0.5,20.3,0.5,30.5
			c0.2,8.1,0.2,16.2,0.2,24.3c0.2,10.7,0.5,21.5,0.7,32.2c0,4.3,0.2,8.8,0.2,12.9c1.7,1.9,3.6,1.9,5.5,1.9c7.9,0.5,16,0.7,23.8,1.2
			c2.9,0.2,6,0.2,9.3,1.2c-1,1.2-1.7,1.9-2.1,2.6c-5,5.7-9.8,11.4-15,17.2c-7.2,7.9-13.8,16.2-21.9,23.1c0,0.5-0.2,1.2-0.2,1.9
			c0,7.6-0.3,15.2-0.2,22.8c0,2.2,0,4.4,0,6.5c-0.2,7.8-0.2,15.7,0.2,23.5c0.7,11,0.7,21.9,1.2,32.9c0.2,6.9,0.2,13.8,0.5,20.5
			c0.2,10.2,0.7,20.3,1,30.5c0.2,5,0.2,10.2,0.2,15.3c0.5,12.2,1,24.1,1.2,36.2c0.2,6.9,0.2,14.1,0.5,21c0.2,10.5,0.7,21.2,1.2,31.7
			c0.2,6.7,0.2,13.6,0.5,20.3c0.2,10.2,0.7,20.3,1,30.5c0.2,6.9,0.2,14.1,0.5,21c0.2,10.5,0.7,21,1.2,31.2
			c0.2,6.7,0.2,13.1,0.5,19.8c0,1.4,0.2,3.1,0.2,4.5c0.2,1.4,1,2.4,2.4,2.6c1.4,0.2,2.9,0.5,4.5,0.7c5,0.7,10,1.4,15,2.1
			c6.7,1,13.3,1.9,20,2.9c4.8,0.7,9.5,1.4,14.3,1.9c6.7,1,13.3,1.9,20,2.9c7.2,1,14.1,1.9,21.2,3.1c6.4,1,13.1,1.9,19.5,2.9
			c6.7,1,13.3,1.9,20,2.9c6.9,1,13.6,1.9,20.5,2.9c7.2,1,14.3,2.1,21.7,3.1c6.2,1,12.4,1.7,18.8,2.6c2.6,0.5,5,0,7.6-1.2
			c29.8-13.3,59.6-26.7,89.4-40.3c2.9-1.4,5.7-1.7,8.8-1.2c0.7,0.2,1.7,0.2,2.4,0.5c1.9,0.5,3.8,0.2,5.5-0.7c0.7-0.5,1.4-0.7,2.1-1
			c33.6-15.3,67.4-30.5,101.1-46h1v-0.5c1-0.5,1.9-1,2.9-1.4c0-0.7,0.2-1.2,0.2-1.7c0-4.8,0.2-9.3,0.2-14.1
			c0.2-10.5,0.2-21,0.5-31.5c0.2-15.7,0.5-31.5,0.7-47c0.2-16.7,0.5-33.4,0.5-49.8c0-8.6,0.2-17.2,0.2-25.5c0-5.5,0-10.7,0.2-16.2
			c0.2-11.9,0.5-23.8,0.7-36c0.2-13.8,0.2-27.4,0.2-41.2c0-4.1,0-7.9,0-11.9c0-4.5,0.2-9.1,0.5-13.6c0.2-7.9,0.2-16,0.5-23.8
			c0-1.4-0.5-2.4-1.7-3.1c-4.3-2.4-8.3-5.2-12.2-8.6c-9.3-7.9-16.9-17.2-24.5-26.5c-0.2-0.5-0.5-1-0.7-1.4c0.5-0.2,1-0.5,1.2-0.5
			c5.2-0.2,10.5-0.7,15.7-0.7c6.7,0,13.3-0.7,20-1.7c0.5,0,1.2,0,1.7-0.2c0.7-0.5,1.2-1,1.7-1.7c0.2-0.5,0.2-1,0.2-1.7
			c0-4.3-0.2-8.8-0.2-13.1c-0.2-5.2-0.5-10.5-0.5-15.7c0-5.5,0.5-11,0.5-16.4c0.2-17.4,0.7-34.6,0.7-52c0-11.7,1-23.1,1.4-34.6
			c0.5-10.2,1.2-20.5,1.7-31c0.7-11.2,1.2-22.4,1.9-33.8c0-0.5-0.2-0.7-0.2-1c-2.9-2.9-5.7-5.5-8.3-8.1c-1.7-1.7-3.6-3.6-5.2-5.2
			c-9.8-9.5-19.5-19.3-29.6-28.8c-0.7-0.7-1.2-1.4-1.9-2.1c6.2-6.2,12.4-12.4,18.6-18.6c12.2-11.9,24.3-24.1,36.5-36
			c0.5-0.5,1.2-1.2,1.7-1.9C590-312.5,589.5-313.6,588.5-314.1z M445.8,318.7c0,0.5,0,1.2,0,1.7c0,14.5-0.2,28.8-0.2,43.4
			c0,4.8-0.2,9.5-0.2,14.5c0,0.7-0.2,1.7-0.2,2.6c-9.8-0.5-39.3-3.1-45.3-4.1c-1-0.7-1-1.9-1.2-3.1c-0.2-5-0.5-9.8-0.5-14.8
			c0-6.4,0-12.6-0.2-19.1c0-1,0-1.9-0.2-2.6c-1-1.2-2.1-1.2-3.1-1.2c-6.2-0.5-12.4-1-18.6-1.4c-2.6-0.2-5.5-0.2-8.1-0.5
			c-6.7-0.5-13.1-1.2-19.8-1.4c-3.6-0.2-7.2,0-10.7,0c-1,1-0.7,2.4-0.7,3.6c0,9.8,0,19.5,0,29.3c0,9.1,0.2,17.9,0,26.9
			c0,8.1,0,16,1.2,23.8c0.2,2.1,0.2,4.3,0,6.7c-1.9,1-4.1,0.5-5.7,0.2c-7.4-1-14.5-2.4-21.9-3.3c-5.2-0.7-10.2-1.4-15.5-2.1
			c-2.4-0.2-4.5-0.7-6.9-1c-4.5-0.7-9.3-1.4-13.8-2.1c-4.3-0.7-8.6-1.4-13.1-2.1c-2.6-0.5-5.2-1-7.6-1.2c-4.3-0.5-8.6-1.2-13.1-2.1
			c-4.5-1-9.1-1.4-13.3-1.9c-6.4-1-12.9-1.9-19.1-2.6c-5.5-0.7-11.2-1.7-16.7-2.4c-6-0.7-11.9-1.4-18.1-2.1c-3.3-0.5-6.9-0.7-10.2-1
			c-1.2-0.2-2.4-0.2-3.8-0.5c-0.2-1-0.5-1.9-0.5-2.9c-0.2-10-0.5-20-0.7-30c-0.2-11-0.2-21.7-0.5-32.7c-0.2-10.5-0.5-21.2-0.7-31.7
			s-0.5-21.2-0.7-31.7c-0.2-11.9-0.5-23.6-1-35.5c-0.2-5.7-0.5-11.2-1-16.9c-0.7-7.2-0.7-14.5-1-21.9c-0.2-11.4-0.5-23.1-1-34.6
			c0-2.9-0.7-5.7-1-8.6c-0.2-6-0.7-12.2-0.7-18.1c-0.2-9.5-0.5-19.1-0.7-28.4c-0.2-2.9-0.5-6-0.7-8.8l297,15.5c0,17.9,0,35.8,0,53.4
			c0,5.5,0,10.7-0.2,16.2c-0.2,12.2-0.5,24.3-0.5,36.2c0.2,12.6,0.2,26.2,0.7,39.6C446.3,278.1,445.8,298.4,445.8,318.7z
			 M449.1-225.5c0,4.3-0.2,8.6-0.2,12.9c0,1,0,1.9-0.2,2.9c-1.2,3.8-1,7.9-1.2,11.9c-0.2,8.8,0,17.6-0.2,26.5
			c-0.2,6.9-0.5,14.1-1.2,21c-0.5,5-0.5,10.2-0.5,15.3c-0.2,11.2-0.2,22.6-0.2,33.8c-0.2,16.2-0.2,32.4-0.2,48.6
			c0,1.2,0,2.4,0.2,3.8c1.4,9.3,0.5,18.6,0.7,28.1c0,0.5-0.2,0.7-0.5,1.4c-0.8,0-1.7,0.3-2.9,0.2c-0.7,0-1.4,0.1-2.2,0.1
			c-4.4,0.9-9.1,0.6-13.7,0.6c-11.2,0-22.6,0-33.8,0c-1.4,0-2.6,0-4.1,0c-0.5,1.4,0.5,2.1,1.2,3.1c6,8.1,12.2,16,18.1,24.1
			c4.5,6,9.8,11.2,14.5,16.9c5.2,6,11,11.4,17.4,16.4c6.4,5.2,5.2,2.9,5.2,11c0,13.6-0.2,27.2-0.2,40.8c0,2.1-0.2,4.1,0.7,6.2
			c0.2,0.2,0.2,0.7,0.2,1.2L148.3,85.1c-0.2-4.5-0.7-9.1,0-13.3c0.5-6,0.5-11.9,0.5-17.6c0-2.9,0-5.7-0.2-8.6c0-1.9,0.5-3.3,1.9-4.8
			c11.4-12.9,22.9-25.7,34.6-38.4c5.5-6,11.2-11.2,16.9-16.9c1-1,2.1-2.1,3.3-3.3c-1.7-1-3.1-1-4.5-1c-2.4,0-4.8,0-6.9-0.2
			c-13.6-0.5-27.2-1.2-40.8-1.7c-0.5,0-1.2,0-1.7-0.2s-1-0.7-1.4-1.4c-0.2-0.5-0.2-1.2-0.2-1.7c-0.3-14.9-0.5-30.1-1.2-44.9
			c-0.2-7.3-0.3-14.5-0.5-21.8c0-4.1-0.2-8.1-0.2-12.2c-0.2-15-0.5-30.3-1-45.3c-0.2-14.1-0.5-28.4-0.7-42.4
			c-0.2-7.9-0.2-15.7-0.5-23.6c0-1.7,0.2-3.1,1.7-4.5c15-15,30-30.3,45.3-45.3c0,0,0.2-0.2,0.5-0.5c5.2-0.2,10.7-0.5,16.2-0.7
			c5-0.2,9.8-0.5,14.8-0.7c5.2-0.2,10.5-0.7,15.7-1c7.9-0.5,16-1,23.8-1.4c5.7-0.5,11.4-0.7,17.4-1c6.2-0.5,12.6-1,18.8-1.2
			c4.8-0.2,9.5-0.7,14.3-1.2c9.1-0.7,18.4-1.7,27.4-2.4c3.8-0.2,7.6-0.7,11.4-1c2.4,0,3.8-1,5.2-2.6c10.7-11.7,21.5-23.4,32.2-34.8
			c6.2-6.7,12.4-13.3,18.4-20c1.7-1.9,3.6-2.9,6-2.9c6.2-0.2,12.4-1,18.6-1.4c2.4-0.2,4.5,0,7.2,0c0,0.7,0,1.4-0.2,1.9
			c-0.5,0.7-1.2,1.4-1.9,2.1c-13.8,14.5-27.6,29.1-41.5,43.6c-1,1-1.7,1.9-2.9,3.3c1.2,1.2,2.1,2.4,3.3,3.3
			c16,16,32.2,31.9,48.1,48.1C449.8-230,449.1-231.7,449.1-225.5z M459.8,388.3c0.7-0.2,1.4-0.7,2-0.9
			C461.4,387.7,460.6,388.1,459.8,388.3z"/>
	</g>
	<g>
		<path class="st0" d="M319.7-41.6c-1.7,0-3.3,0.2-5-0.2c-3.8-0.7-7.6-0.7-11.4-0.7c-1.2,0-2.1-0.2-3.3-0.2
			c-7.2-0.5-14.5-1-21.7-1.4c-2.6-0.2-5.2-0.2-7.9-0.5c-1.7,0-3.3-0.7-5,0c-0.5,1.7-0.2,3.3-0.2,5c0.7,17.6,0.7,35.3,0.7,53.1
			c0,4.1,0,8.3,0.2,12.4c0,1,0.5,1.7,0.5,2.6c0.5,0.2,0.7,0.2,1.2,0.2c7.6-0.2,15,0.7,22.6-0.5c0.7-0.2,1.7,0,2.4,0
			c11.9,0.2,23.8-0.5,35.8-1c0.7,0,1.4-0.2,2.4-0.5c0-1.4,0-2.9,0-4.3c0-5.2,0-10.5,0-15.7c0-4.3,0.5-8.8,0.7-13.1
			c0.2-2.1,0.5-4.3,0.5-6.7c0.2-7.9,0.2-16,0.2-23.8c0-1.2-0.2-2.1-0.2-3.6C327.8-41.1,323.7-41.6,319.7-41.6z"/>
	</g>
</g>
<g>
	<linearGradient id="SVGID_1_" gradientUnits="userSpaceOnUse" x1="182.3452" y1="559.25" x2="182.3452" y2="460.4297">
		<stop  offset="0.133" style="stop-color:#FFB332"/>
		<stop  offset="0.1495" style="stop-color:#FFB73D"/>
		<stop  offset="0.2244" style="stop-color:#FFC86A"/>
		<stop  offset="0.3046" style="stop-color:#FFD792"/>
		<stop  offset="0.3888" style="stop-color:#FFE3B4"/>
		<stop  offset="0.4782" style="stop-color:#FFEDCF"/>
		<stop  offset="0.5748" style="stop-color:#FFF5E5"/>
		<stop  offset="0.6819" style="stop-color:#FFFBF4"/>
		<stop  offset="0.8079" style="stop-color:#FFFEFC"/>
		<stop  offset="1" style="stop-color:#FFFFFF"/>
	</linearGradient>
	<path class="st1" d="M198.6,540.8h-32.6l-5.7,18.5h-25.5l36.2-98.8h22.4l36.5,98.8h-25.6L198.6,540.8z M171.6,522.4h21.2
		l-10.7-34.3L171.6,522.4z"/>
	<linearGradient id="SVGID_2_" gradientUnits="userSpaceOnUse" x1="269.7632" y1="559.25" x2="269.7632" y2="460.4297">
		<stop  offset="0.133" style="stop-color:#FFB332"/>
		<stop  offset="0.1495" style="stop-color:#FFB73D"/>
		<stop  offset="0.2244" style="stop-color:#FFC86A"/>
		<stop  offset="0.3046" style="stop-color:#FFD792"/>
		<stop  offset="0.3888" style="stop-color:#FFE3B4"/>
		<stop  offset="0.4782" style="stop-color:#FFEDCF"/>
		<stop  offset="0.5748" style="stop-color:#FFF5E5"/>
		<stop  offset="0.6819" style="stop-color:#FFFBF4"/>
		<stop  offset="0.8079" style="stop-color:#FFFEFC"/>
		<stop  offset="1" style="stop-color:#FFFFFF"/>
	</linearGradient>
	<path class="st2" d="M260.9,540.9h41.5v18.3h-65.3v-98.8h23.8V540.9z"/>
	<linearGradient id="SVGID_3_" gradientUnits="userSpaceOnUse" x1="351.3442" y1="559.25" x2="351.3442" y2="460.4297">
		<stop  offset="0.133" style="stop-color:#FFB332"/>
		<stop  offset="0.1495" style="stop-color:#FFB73D"/>
		<stop  offset="0.2244" style="stop-color:#FFC86A"/>
		<stop  offset="0.3046" style="stop-color:#FFD792"/>
		<stop  offset="0.3888" style="stop-color:#FFE3B4"/>
		<stop  offset="0.4782" style="stop-color:#FFEDCF"/>
		<stop  offset="0.5748" style="stop-color:#FFF5E5"/>
		<stop  offset="0.6819" style="stop-color:#FFFBF4"/>
		<stop  offset="0.8079" style="stop-color:#FFFEFC"/>
		<stop  offset="1" style="stop-color:#FFFFFF"/>
	</linearGradient>
	<path class="st3" d="M336.3,525.7v33.5h-23.8v-98.8h39.4c7.6,0,14.2,1.4,20.1,4.2c5.8,2.8,10.3,6.7,13.5,11.9
		c3.2,5.1,4.8,11,4.8,17.5c0,9.6-3.5,17.3-10.4,23.1c-6.9,5.8-16.4,8.7-28.4,8.7H336.3z M336.3,507.3h15.6c4.6,0,8.1-1.2,10.6-3.5
		c2.4-2.3,3.6-5.6,3.6-9.8c0-4.6-1.2-8.3-3.7-11.1c-2.5-2.8-5.9-4.2-10.2-4.2h-15.9V507.3z"/>
	<linearGradient id="SVGID_4_" gradientUnits="userSpaceOnUse" x1="444.2261" y1="559.25" x2="444.2261" y2="460.4297">
		<stop  offset="0.133" style="stop-color:#FFB332"/>
		<stop  offset="0.1495" style="stop-color:#FFB73D"/>
		<stop  offset="0.2244" style="stop-color:#FFC86A"/>
		<stop  offset="0.3046" style="stop-color:#FFD792"/>
		<stop  offset="0.3888" style="stop-color:#FFE3B4"/>
		<stop  offset="0.4782" style="stop-color:#FFEDCF"/>
		<stop  offset="0.5748" style="stop-color:#FFF5E5"/>
		<stop  offset="0.6819" style="stop-color:#FFFBF4"/>
		<stop  offset="0.8079" style="stop-color:#FFFEFC"/>
		<stop  offset="1" style="stop-color:#FFFFFF"/>
	</linearGradient>
	<path class="st4" d="M485.5,559.3h-23.7V518h-35.1v41.3h-23.8v-98.8h23.8v39.2h35.1v-39.2h23.7V559.3z"/>
	<linearGradient id="SVGID_5_" gradientUnits="userSpaceOnUse" x1="541.7227" y1="559.25" x2="541.7227" y2="460.4297">
		<stop  offset="0.133" style="stop-color:#FFB332"/>
		<stop  offset="0.1495" style="stop-color:#FFB73D"/>
		<stop  offset="0.2244" style="stop-color:#FFC86A"/>
		<stop  offset="0.3046" style="stop-color:#FFD792"/>
		<stop  offset="0.3888" style="stop-color:#FFE3B4"/>
		<stop  offset="0.4782" style="stop-color:#FFEDCF"/>
		<stop  offset="0.5748" style="stop-color:#FFF5E5"/>
		<stop  offset="0.6819" style="stop-color:#FFFBF4"/>
		<stop  offset="0.8079" style="stop-color:#FFFEFC"/>
		<stop  offset="1" style="stop-color:#FFFFFF"/>
	</linearGradient>
	<path class="st5" d="M557.9,540.8h-32.6l-5.7,18.5h-25.5l36.2-98.8h22.4l36.5,98.8h-25.6L557.9,540.8z M531,522.4h21.2l-10.7-34.3
		L531,522.4z"/>
</g>
</svg>
