<?xml version="1.0" encoding="utf-8"?>
<!-- Generator: Adobe Illustrator 19.0.1, SVG Export Plug-In . SVG Version: 6.00 Build 0)  -->
<!DOCTYPE svg PUBLIC "-//W3C//DTD SVG 1.1//EN" "http://www.w3.org/Graphics/SVG/1.1/DTD/svg11.dtd">
<svg version="1.1" id="Layer_1" xmlns="http://www.w3.org/2000/svg" xmlns:xlink="http://www.w3.org/1999/xlink" x="0px" y="0px"
	 viewBox="-187 22 24 24" style="enable-background:new -187 22 24 24;" xml:space="preserve">
<style type="text/css">
	.st0{fill:none;}
</style>
<path class="st0" d="M-187,22h24v24h-24V22z"/>
<path d="M-168,26h-14c-1.1,0-2,0.9-2,2v12c0,1.1,0.9,2,2,2h4v-2h-4V30h14v10h-4v2h4c1.1,0,2-0.9,2-2V28C-166,26.9-166.9,26-168,26z"
	/>
<g>
	<path d="M-176.5,32.8l1.6,2.4l1.6-2.4h3l-3.1,4.5l3.3,4.7h-3l-1.8-2.5l-1.7,2.5h-2.9l3.2-4.7l-3-4.5H-176.5z"/>
</g>
</svg>
