<?xml version="1.0" encoding="utf-8"?>
<!-- Generator: Adobe Illustrator 19.0.1, SVG Export Plug-In . SVG Version: 6.00 Build 0)  -->
<!DOCTYPE svg PUBLIC "-//W3C//DTD SVG 1.1//EN" "http://www.w3.org/Graphics/SVG/1.1/DTD/svg11.dtd">
<svg version="1.1" id="Layer_1" xmlns="http://www.w3.org/2000/svg" xmlns:xlink="http://www.w3.org/1999/xlink" x="0px" y="0px"
	 viewBox="-187 22 24 24" style="enable-background:new -187 22 24 24;" xml:space="preserve">
<style type="text/css">
	.st0{fill:none;}
	.st1{fill:#F44336;}
</style>
<path class="st0" d="M-187,22h24v24h-24V22z"/>
<path class="st1" d="M-172,25h-9c-0.8,0-1.5,0.5-1.8,1.2l-3,7c-0.1,0.2-0.1,0.5-0.1,0.7v1.9l0,0l0,0.1c0,1.1,0.9,2,2,2h6.3l-0.9,4.6
	l0,0.3c0,0.4,0.2,0.8,0.4,1.1l1.1,1.1l6.6-6.6c0.4-0.4,0.6-0.9,0.6-1.4V27C-170,25.9-170.9,25-172,25z M-168,25v12h4V25H-168z"/>
</svg>
