<?xml version="1.0" encoding="utf-8"?>
<!-- Generator: Adobe Illustrator 19.0.1, SVG Export Plug-In . SVG Version: 6.00 Build 0)  -->
<!DOCTYPE svg PUBLIC "-//W3C//DTD SVG 1.1//EN" "http://www.w3.org/Graphics/SVG/1.1/DTD/svg11.dtd">
<svg version="1.1" id="Layer_1" xmlns="http://www.w3.org/2000/svg" xmlns:xlink="http://www.w3.org/1999/xlink" x="0px" y="0px"
	 viewBox="-192.9 25 23.5 18" style="enable-background:new -192.9 25 23.5 18;" xml:space="preserve">
<style type="text/css">
	.st0{fill:#FFFFFF;}
	.st1{fill:none;}
</style>
<line class="st0" x1="-189.3" y1="42.3" x2="-172.7" y2="25.7"/>
<rect x="-181.5" y="22.2" transform="matrix(0.7071 0.7071 -0.7071 0.7071 -28.972 137.9447)" class="st0" width="1" height="23.6"/>
<path class="st1" d="M-215.7,21.9h18v18h-18V21.9z"/>
<path class="st0" d="M-173.4,32.7h-4.5c-0.4,0-0.8,0.3-0.9,0.6l-1.5,3.7c0,0.1-0.1,0.2-0.1,0.4v1l0,0l0,0c0,0.6,0.4,1.1,1,1.1h3.1
	l-0.5,2.4l0,0.2c0,0.2,0.1,0.4,0.2,0.6l0.5,0.6l3.3-3.5c0.2-0.2,0.3-0.5,0.3-0.7v-5.3C-172.4,33.1-172.8,32.7-173.4,32.7z
	 M-171.4,32.7V39h2v-6.3H-171.4z"/>
<path class="st0" d="M-192.9,35.8h2v-6.3h-2V35.8z M-182,30c0-0.6-0.4-1.1-1-1.1h-3.1l0.5-2.4l0-0.2c0-0.2-0.1-0.4-0.2-0.6l-0.5-0.6
	l-3.2,3.5c-0.2,0.2-0.3,0.5-0.3,0.7v5.3c0,0.6,0.4,1,1,1h4.4c0.4,0,0.8-0.3,0.9-0.6l1.5-3.7c0-0.1,0.1-0.2,0.1-0.4V30L-182,30
	L-182,30z"/>
</svg>
